<svg xmlns="http://www.w3.org/2000/svg" version="1.1" xmlns:xlink="http://www.w3.org/1999/xlink" xmlns:svgjs="http://svgjs.com/svgjs" width="512" height="512" x="0" y="0" viewBox="0 0 512 512" style="enable-background:new 0 0 512 512" xml:space="preserve"><g><path xmlns="http://www.w3.org/2000/svg" d="m466.644 103.232c-25.737-5.626-59.838-8.725-96.022-8.725-49.9 0-107.3 6.472-130.241 20.815a160.225 160.225 0 0 0 -79.156-20.815c-88.9 0-161.225 72.326-161.225 161.225s72.325 161.224 161.225 161.224a160.227 160.227 0 0 0 79.151-20.811c22.941 14.341 80.349 20.811 130.246 20.811 36.184 0 70.285-3.1 96.022-8.725 30.52-6.672 45.356-15.972 45.356-28.431v-248.134c0-12.461-14.836-21.766-45.356-28.434zm29.356 193.559c-.582.906-5.931 7.74-36.729 13.928-24.16 4.853-55.643 7.526-88.649 7.526a546.11 546.11 0 0 1 -59.515-3.112 160.376 160.376 0 0 0 11.342-59.4c0-2.061-.052-4.109-.129-6.152 15.39 1.291 31.585 1.955 48.3 1.955 36.185 0 70.285-3.1 96.022-8.725q18.491-4.043 29.358-9.411zm0-82.711c-.581.905-5.929 7.74-36.729 13.928-24.16 4.854-55.642 7.527-88.649 7.527-17.276 0-33.969-.717-49.726-2.129a160.3 160.3 0 0 0 -27.48-69.86c22.526 3.433 49.15 5.278 77.206 5.278 36.185 0 70.285-3.1 96.022-8.725q18.489-4.042 29.356-9.406zm-125.378-103.573c33.006 0 64.489 2.673 88.649 7.527 28.531 5.732 35.219 12.017 36.512 13.632-1.292 1.614-7.977 7.9-36.512 13.631-24.16 4.854-55.642 7.527-88.649 7.527-34.844 0-68.511-3.06-92.888-8.42a162.53 162.53 0 0 0 -21.827-19.08c19.273-7.881 60.643-14.817 114.715-14.817zm-354.622 145.225c0-80.077 65.147-145.225 145.225-145.225s145.224 65.148 145.224 145.225-65.149 145.224-145.224 145.224-145.225-65.147-145.225-145.224zm443.271 137.7c-24.16 4.853-55.643 7.526-88.649 7.526-54.069 0-95.442-6.934-114.718-14.814a162.365 162.365 0 0 0 48.167-55.725 552.03 552.03 0 0 0 66.551 3.828c36.184 0 70.285-3.1 96.022-8.724q18.489-4.042 29.356-9.406v63.383c-.587.914-5.949 7.745-36.729 13.93zm-269.1-165.684c0 12.725 8.383 16.5 27.512 22.082 16.3 4.755 36.586 10.674 36.586 33.89a39.982 39.982 0 0 1 -35.17 39.559v8.339a8 8 0 0 1 -16 0v-9.609a39.954 39.954 0 0 1 -28.928-38.289 8 8 0 0 1 16 0 24.05 24.05 0 0 0 48.1 0c0-10.156-7.639-13.446-25.068-18.53-16.471-4.806-39.03-11.388-39.03-37.442a39.956 39.956 0 0 1 28.928-38.29v-9.608a8 8 0 0 1 16 0v8.339a39.982 39.982 0 0 1 35.17 39.559 8 8 0 0 1 -16 0 24.05 24.05 0 0 0 -48.1 0zm-60.656-40.21h-53.327a8 8 0 0 0 -8 8v61.478a8.042 8.042 0 0 0 .074 1.035 7.961 7.961 0 0 0 -.075 1.042v56.837a8 8 0 0 0 16 0v-50.916h30.228a7.932 7.932 0 0 0 .55 1.182l31.021 53.732a8 8 0 0 0 13.856-8l-27.17-47.061a36.284 36.284 0 0 0 33.079-36.094v-5a36.282 36.282 0 0 0 -36.241-36.237zm20.241 41.237a20.264 20.264 0 0 1 -20.241 20.241h-45.327v-45.48h45.322a20.264 20.264 0 0 1 20.241 20.24z" fill="#FFA500" data-original="#000000"></path></g></svg>